<?xml version="1.0" standalone="no"?>
<!DOCTYPE svg PUBLIC "-//W3C//DTD SVG 20010904//EN"
 "http://www.w3.org/TR/2001/REC-SVG-20010904/DTD/svg10.dtd">
<svg version="1.0" xmlns="http://www.w3.org/2000/svg"
 width="300.000000pt" height="300.000000pt" viewBox="0 0 300.000000 300.000000"
 preserveAspectRatio="xMidYMid meet">
<metadata>
Created by potrace 1.10, written by Peter Selinger 2001-2011
</metadata>
<g transform="translate(0.000000,300.000000) scale(0.100000,-0.100000)"
fill="currentColor" stroke="none">
<path d="M270 2991 c-88 -28 -146 -79 -184 -161 -21 -45 -21 -47 -21 -1330 0
-1283 0 -1285 21 -1330 30 -65 69 -107 128 -138 51 -27 52 -27 266 -27 l215 0
58 33 57 32 38 -24 c65 -42 103 -48 312 -44 178 3 198 5 236 25 53 28 99 74
127 127 l22 41 5 910 5 910 289 -910 c159 -501 299 -928 311 -950 31 -54 71
-90 128 -115 77 -34 141 -29 313 26 227 71 270 99 317 204 43 96 52 61 -352
1330 -204 641 -378 1185 -387 1209 -38 101 -143 172 -252 172 -53 0 -215 -43
-360 -97 l-44 -16 -39 41 c-77 80 -98 86 -319 89 -209 4 -247 -2 -312 -44
l-38 -24 -57 32 -58 33 -200 2 c-110 1 -211 -2 -225 -6z m421 -200 l29 -29 0
-211 0 -211 -240 0 -240 0 0 211 0 211 29 29 29 29 182 0 182 0 29 -29z m644
13 c38 -25 45 -64 45 -270 l0 -194 -240 0 -240 0 0 212 0 212 27 28 27 28 178
0 c145 0 183 -3 203 -16z m644 -21 c24 -23 41 -63 90 -217 34 -104 59 -191 57
-193 -9 -9 -447 -145 -452 -140 -8 8 -124 379 -124 396 0 9 9 30 20 48 17 29
34 37 172 82 84 27 165 50 180 50 17 1 39 -10 57 -26z m345 -1020 c77 -241
139 -444 140 -452 1 -9 -66 -35 -214 -82 -118 -38 -220 -69 -227 -69 -7 0 -21
28 -32 63 -10 34 -74 234 -141 445 -67 211 -119 386 -117 389 6 6 427 141 442
142 6 1 73 -196 149 -436z m-1604 -78 l0 -475 -240 0 -240 0 0 475 0 475 240
0 240 0 0 -475z m658 3 l-3 -473 -237 -3 -238 -2 0 475 0 475 240 0 240 0 -2
-472z m1175 -646 c15 -49 27 -92 27 -95 0 -6 -429 -147 -446 -147 -9 0 -69
179 -62 185 5 4 432 143 444 144 6 1 23 -39 37 -87z m-1833 -102 l0 -100 -240
0 -240 0 0 100 0 100 240 0 240 0 0 -100z m658 -2 l3 -98 -241 0 -240 0 0 100
0 100 238 -2 237 -3 3 -97z m1322 -357 c33 -103 60 -200 60 -213 0 -54 -32
-75 -198 -128 -85 -27 -166 -50 -179 -50 -12 0 -36 12 -52 27 -24 23 -41 64
-90 218 -33 104 -58 191 -57 193 5 5 429 140 443 141 7 1 37 -76 73 -188z
m-1980 -132 l0 -211 -29 -29 -29 -29 -182 0 -182 0 -29 29 -29 29 0 211 0 211
240 0 240 0 0 -211z m660 17 c0 -112 -5 -206 -11 -224 -20 -57 -39 -62 -236
-62 l-177 0 -28 27 -28 27 0 213 0 213 240 0 240 0 0 -194z"/>
</g>
</svg>
