<?xml version="1.0" standalone="no"?>
<!DOCTYPE svg PUBLIC "-//W3C//DTD SVG 20010904//EN"
 "http://www.w3.org/TR/2001/REC-SVG-20010904/DTD/svg10.dtd">
<svg version="1.0" xmlns="http://www.w3.org/2000/svg"
 width="300.000000pt" height="300.000000pt" viewBox="0 0 300.000000 300.000000"
 preserveAspectRatio="xMidYMid meet">
<metadata>
Created by potrace 1.10, written by Peter Selinger 2001-2011
</metadata>
<g transform="translate(0.000000,300.000000) scale(0.100000,-0.100000)"
fill="currentColor" stroke="none">
<path d="M1295 2984 c-346 -53 -628 -197 -867 -442 -325 -335 -478 -794 -412
-1241 49 -336 180 -604 412 -843 335 -345 810 -510 1271 -442 336 49 604 180
843 412 609 592 609 1552 0 2144 -152 148 -317 254 -511 329 -224 87 -505 119
-736 83z m460 -209 c262 -55 468 -167 660 -360 194 -193 305 -398 362 -665 13
-62 18 -129 18 -250 0 -121 -5 -188 -18 -250 -57 -267 -168 -472 -362 -665
-193 -194 -398 -305 -665 -362 -120 -25 -383 -25 -500 0 -268 58 -472 168
-665 362 -194 193 -304 397 -362 665 -25 117 -25 380 0 500 116 550 556 964
1103 1039 99 14 335 6 429 -14z"/>
<path d="M1464 2551 c-12 -5 -31 -22 -43 -37 -21 -27 -21 -30 -21 -566 l0
-539 446 3 446 3 24 28 c26 31 31 71 12 112 -24 53 -39 55 -398 55 l-330 0 0
440 0 440 -27 30 c-30 32 -75 45 -109 31z"/>
</g>
</svg>
