<?xml version="1.0" standalone="no"?>
<!DOCTYPE svg PUBLIC "-//W3C//DTD SVG 20010904//EN"
 "http://www.w3.org/TR/2001/REC-SVG-20010904/DTD/svg10.dtd">
<svg version="1.0" xmlns="http://www.w3.org/2000/svg"
 width="300.000000pt" height="300.000000pt" viewBox="0 0 300.000000 300.000000"
 preserveAspectRatio="xMidYMid meet">
<metadata>
Created by potrace 1.10, written by Peter Selinger 2001-2011
</metadata>
<g transform="translate(0.000000,300.000000) scale(0.100000,-0.100000)"
fill="currentColor" stroke="none">
<path d="M1295 2984 c-344 -52 -621 -192 -857 -431 -238 -240 -372 -511 -422
-854 -27 -185 -16 -382 34 -580 100 -393 387 -754 750 -943 175 -91 300 -131
501 -160 185 -27 382 -16 580 34 393 100 754 387 943 750 91 175 131 300 160
501 27 185 16 382 -34 580 -100 393 -387 754 -750 943 -58 30 -136 66 -174 81
-223 83 -505 114 -731 79z m115 -469 l0 -305 -42 5 c-24 2 -72 7 -108 10 -119
9 -272 38 -277 51 -9 24 72 287 139 451 21 50 23 53 72 63 112 23 143 28 179
29 l37 1 0 -305z m341 285 c56 -11 103 -21 104 -22 10 -10 62 -148 99 -260 53
-163 71 -237 60 -248 -12 -10 -178 -38 -274 -45 -41 -3 -92 -8 -112 -11 l-38
-4 0 305 0 305 30 0 c16 0 75 -9 131 -20z m-841 -137 c-4 -16 -18 -54 -29 -87
-11 -32 -33 -103 -48 -158 l-26 -100 -29 6 c-16 3 -76 24 -134 47 -104 41
-105 41 -87 61 25 28 147 127 208 168 40 28 144 89 152 90 1 0 -2 -12 -7 -27z
m1395 -113 c49 -38 105 -84 123 -103 l34 -35 -106 -41 c-58 -23 -118 -44 -134
-47 l-29 -6 -26 100 c-15 55 -37 126 -48 158 -11 33 -25 72 -29 87 l-9 28 67
-36 c36 -20 107 -68 157 -105z m-1828 -301 c26 -12 102 -41 168 -64 97 -35
120 -47 118 -62 -1 -10 -11 -90 -22 -178 -11 -88 -23 -204 -27 -257 l-6 -98
-264 0 -264 0 0 29 c0 98 70 342 135 471 34 69 103 180 110 180 2 0 25 -10 52
-21z m2136 -31 c51 -78 106 -192 139 -288 30 -90 68 -262 68 -311 l0 -29 -264
0 -264 0 -6 98 c-4 53 -16 169 -27 257 -11 88 -21 168 -22 178 -2 15 21 27
118 62 66 23 140 52 165 63 25 11 48 21 52 21 3 1 22 -23 41 -51z m-1519 -148
c66 -10 165 -22 219 -26 l97 -7 0 -223 0 -224 -262 0 -261 0 6 123 c6 110 28
304 42 365 4 17 11 22 22 18 8 -4 70 -15 137 -26z m971 8 c14 -61 37 -256 42
-365 l6 -123 -261 0 -262 0 0 224 0 223 98 7 c97 7 342 43 351 51 10 11 21 4
26 -17z m-1351 -765 c4 -54 16 -170 27 -258 11 -88 21 -168 22 -178 2 -15 -21
-27 -118 -62 -66 -23 -142 -52 -169 -64 l-50 -22 -22 28 c-39 47 -124 218
-155 310 -31 92 -69 265 -69 314 l0 29 264 0 264 0 6 -97z m696 -127 l0 -223
-97 -7 c-97 -7 -326 -40 -356 -52 -11 -4 -18 1 -22 18 -14 61 -36 255 -42 366
l-6 122 261 0 262 0 0 -224z m697 102 c-6 -111 -28 -305 -42 -366 -4 -17 -11
-22 -22 -18 -30 12 -259 45 -355 52 l-98 7 0 223 0 224 262 0 261 0 -6 -122z
m713 93 c0 -49 -38 -222 -69 -314 -31 -92 -116 -263 -155 -310 l-22 -28 -50
22 c-27 12 -103 41 -169 64 -97 35 -120 47 -118 62 1 10 11 90 22 178 11 88
23 204 27 258 l6 97 264 0 264 0 0 -29z m-1410 -896 l0 -305 -30 0 c-28 0
-230 36 -235 42 -29 32 -172 475 -162 502 6 14 170 44 312 56 49 4 96 8 103 9
9 1 12 -66 12 -304z m330 290 c96 -7 262 -35 274 -45 11 -11 -7 -85 -60 -248
-37 -112 -89 -250 -99 -260 -5 -6 -207 -42 -235 -42 l-30 0 0 305 0 305 38 -4
c20 -3 71 -8 112 -11z m-906 -194 c14 -54 36 -125 47 -157 11 -33 25 -72 29
-87 l9 -28 -67 36 c-76 42 -231 157 -280 208 l-34 35 104 40 c56 22 110 42
118 45 42 15 47 9 74 -92z m1522 48 c104 -41 105 -41 87 -61 -51 -57 -236
-194 -320 -236 l-42 -22 9 28 c4 15 18 53 29 86 11 32 33 103 48 158 l26 100
29 -6 c16 -3 76 -24 134 -47z"/>
</g>
</svg>
