<?xml version="1.0" standalone="no"?>
<!DOCTYPE svg PUBLIC "-//W3C//DTD SVG 20010904//EN"
 "http://www.w3.org/TR/2001/REC-SVG-20010904/DTD/svg10.dtd">
<svg version="1.0" xmlns="http://www.w3.org/2000/svg"
 width="300.000000pt" height="300.000000pt" viewBox="0 0 300.000000 300.000000"
 preserveAspectRatio="xMidYMid meet">
<metadata>
Created by potrace 1.10, written by Peter Selinger 2001-2011
</metadata>
<g transform="translate(0.000000,300.000000) scale(0.100000,-0.100000)"
fill="currentColor" stroke="none">
<path d="M1353 2981 c-206 -56 -357 -206 -419 -416 -27 -94 -23 -230 10 -330
32 -93 99 -198 161 -253 l45 -39 -63 -27 c-84 -36 -207 -115 -271 -176 l-53
-50 -101 36 c-93 33 -104 35 -133 24 -50 -21 -59 -57 -59 -237 l0 -158 -47
-19 c-145 -60 -217 -225 -163 -370 28 -74 97 -145 163 -171 l47 -18 0 -167 c0
-184 8 -223 49 -245 46 -23 963 -365 981 -365 18 0 935 342 981 365 41 22 49
61 49 245 l0 167 47 18 c66 26 135 97 163 171 54 145 -18 310 -163 370 l-47
19 0 158 c0 180 -9 216 -59 237 -29 11 -40 9 -133 -24 l-101 -36 -52 49 c-67
63 -184 140 -269 176 l-66 28 45 39 c24 21 64 69 89 106 181 272 110 631 -159
811 -97 65 -183 92 -305 97 -73 3 -112 0 -167 -15z m317 -197 c83 -40 136 -87
178 -157 148 -246 12 -554 -269 -613 -327 -68 -595 281 -446 581 45 92 116
156 224 201 50 21 71 24 153 22 83 -3 103 -7 160 -34z m44 -984 c43 -12 111
-36 150 -55 85 -40 191 -114 179 -125 -4 -4 -128 -53 -275 -108 l-268 -100
-268 100 c-147 55 -271 104 -275 108 -22 20 189 141 306 174 140 40 311 43
451 6z m-697 -394 c197 -74 366 -138 376 -141 16 -7 17 -41 17 -527 l0 -519
-22 7 c-13 4 -183 67 -378 140 l-355 133 -3 140 c-2 118 0 141 12 141 23 0 77
51 92 87 10 23 14 81 14 200 0 149 -2 171 -21 210 -15 30 -33 50 -60 64 l-39
19 0 90 c0 50 2 90 5 90 3 0 166 -60 362 -134z m1333 44 l0 -90 -39 -19 c-27
-14 -45 -34 -60 -64 -19 -39 -21 -61 -21 -210 0 -119 4 -177 14 -200 15 -36
69 -87 92 -87 12 0 14 -23 12 -141 l-3 -141 -370 -139 c-203 -76 -373 -139
-377 -139 -5 0 -8 234 -8 519 l0 520 58 21 c31 11 199 74 372 140 173 65 318
119 323 119 4 1 7 -39 7 -89z m-1760 -386 l0 -116 -57 4 c-48 4 -61 10 -85 37
-22 25 -28 41 -28 77 0 39 5 51 34 80 30 30 40 34 85 34 l51 0 0 -116z m1956
82 c29 -29 34 -41 34 -80 0 -36 -6 -52 -28 -77 -24 -27 -37 -33 -85 -37 l-57
-4 0 116 0 116 51 0 c45 0 55 -4 85 -34z"/>
</g>
</svg>
